# xmcd CD database file
#
# Track frame offsets:
#	150
#	13122
#	26022
#	41170
#	56097
#	67122
#	85420
#	104997
#	115945
#	133420
#	143097
#	164395
#	176532
#	195200
#	210647
#	225184
#	245880
#	260747
#	280142
#
# Disc length: 3895 seconds
#
# Revision: 3
# Processed by: cddbd v1.5.2PL0 Copyright (c) Steve Scherf et al.
# Submitted via: CDex 1.51
#
DISCID=230f3513
DTITLE=John Hammond - Big City Blues
DYEAR=1964
DGENRE=Blues
TTITLE0=I'm Ready
TTITLE1=My Starter Won't Start
TTITLE2=Barbecue Blues
TTITLE3=I'm A Man
TTITLE4=Barrelhouse Woman Blues
TTITLE5=Midnight Hour Blues
TTITLE6=Backdoor Man
TTITLE7=I Live The Life I Love
TTITLE8=No Money Down
TTITLE9=My Babe
TTITLE10=When You Got A Good Friend
TTITLE11=Baby, Won't You Tell Me
TTITLE12=They Call It Stormy Monday (But Tuesday Is Just As Bad)
TTITLE13=Statesboro Blues
TTITLE14=Keys To The Highway
TTITLE15=I Just Got Here
TTITLE16=I'm A Man
TTITLE17=Backdoor Man
TTITLE18=Baby, Won't You Tell Me
EXTD=John Hammond: vox, guitar, harmonica - \n- with backing from -\nBilly Butler: electric guitar;\nBobby Donaldson: drums;\nJimmy Lewis: Fender electric bass;\nJames Spruill: electric guitar.\n\nTracks 13-19 are bonus tracks not released on the original
EXTD=LP. YEAR: 1964
EXTT0=
EXTT1=
EXTT2=
EXTT3=
EXTT4=
EXTT5=
EXTT6=
EXTT7=
EXTT8=
EXTT9=
EXTT10=
EXTT11=
EXTT12=
EXTT13=
EXTT14=
EXTT15=
EXTT16=
EXTT17=
EXTT18=
PLAYORDER=
